<svg xmlns="http://www.w3.org/2000/svg" version="1.1" xmlns:xlink="http://www.w3.org/1999/xlink" xmlns:svgjs="http://svgjs.dev/svgjs" width="1000" height="1000" viewBox="0 0 1000 1000"><rect width="1000" height="1000" fill="#ffffff"></rect><g transform="matrix(0.7,0,0,0.7,149.57575757575756,282.1265587044535)"><svg viewBox="0 0 396 247" data-background-color="#ffffff" preserveAspectRatio="xMidYMid meet" height="623" width="1000" xmlns="http://www.w3.org/2000/svg" xmlns:xlink="http://www.w3.org/1999/xlink"><g id="tight-bounds" transform="matrix(1,0,0,1,0.2400000000000091,-0.09999999999999432)"><svg viewBox="0 0 395.52 247.2" height="247.2" width="395.52"><g><svg></svg></g><g><svg viewBox="0 0 395.52 247.2" height="247.2" width="395.52"><g transform="matrix(1,0,0,1,39.55199999999999,95.34711329032258)"><svg viewBox="0 0 316.416 56.50577341935483" height="56.50577341935483" width="316.416"><g><svg viewBox="0 0 316.416 56.50577341935483" height="56.50577341935483" width="316.416"><g><svg viewBox="0 0 316.416 56.50577341935483" height="56.50577341935483" width="316.416"><g><svg viewBox="0 0 316.416 56.50577341935483" height="56.50577341935483" width="316.416"><g><svg viewBox="0 0 316.416 56.50577341935483" height="56.50577341935483" width="316.416"><g><svg viewBox="0 0 316.416 56.50577341935483" height="56.50577341935483" width="316.416"><g transform="matrix(1,0,0,1,0,0)"><svg width="316.416" viewBox="1.55 -31.7 193.73 34.6" height="56.50577341935483" data-palette-color="#31c48d"><path d="M17.5-5.55L20.7-2.45Q19.2-1.1 17.05-0.3 14.9 0.5 12.65 0.5L12.65 0.5Q10.35 0.5 8.33-0.38 6.3-1.25 4.8-2.73 3.3-4.2 2.43-6.2 1.55-8.2 1.55-10.45L1.55-10.45Q1.55-12.7 2.43-14.7 3.3-16.7 4.8-18.2 6.3-19.7 8.28-20.58 10.25-21.45 12.5-21.45L12.5-21.45Q16.05-21.45 18.68-19.33 21.3-17.2 22.45-13.75L22.45-13.75Q20.9-13.2 18.9-12.4 16.9-11.6 14.75-10.73 12.6-9.85 10.45-9 8.3-8.15 6.45-7.45L6.45-7.45Q7.3-5.75 8.93-4.73 10.55-3.7 12.55-3.7L12.55-3.7Q13.9-3.7 15.28-4.2 16.65-4.7 17.5-5.55L17.5-5.55ZM17.1-14.75L17.1-14.75Q16.5-16 15.2-16.63 13.9-17.25 12.55-17.25L12.55-17.25Q11.1-17.25 9.88-16.7 8.65-16.15 7.75-15.23 6.85-14.3 6.33-13.1 5.8-11.9 5.8-10.65L5.8-10.65Q5.8-10.4 5.83-10.3 5.85-10.2 5.85-10.15L5.85-10.15Q7.15-10.65 8.68-11.28 10.2-11.9 11.7-12.53 13.2-13.15 14.6-13.73 16-14.3 17.1-14.75ZM26.15 0L26.15-20.9 29.9-20.9Q30-19.35 30.07-18.07 30.15-16.8 30.25-15.55L30.25-15.55Q31.4-18.25 33.52-19.85 35.65-21.45 38.75-21.45L38.75-21.45Q41.9-21.45 43.8-19.7 45.7-17.95 45.8-15.2L45.8-15.2 45.8 0 41.5 0 41.5-13.25Q41.4-14.85 40.4-15.98 39.4-17.1 37.25-17.2L37.25-17.2Q35.75-17.2 34.5-16.68 33.25-16.15 32.35-15.25 31.45-14.35 30.92-13.1 30.4-11.85 30.4-10.35L30.4-10.35 30.4 0 26.15 0ZM63.25-19.05L63.25-19.05 61-16.05Q60.95-16.1 60.65-16.3 60.35-16.5 59.87-16.7 59.4-16.9 58.77-17.07 58.15-17.25 57.5-17.25L57.5-17.25Q56.65-17.25 55.82-16.85 55-16.45 55-15.35L55-15.35Q55-14.4 55.67-13.8 56.35-13.2 57.35-12.73 58.35-12.25 59.52-11.75 60.7-11.25 61.7-10.53 62.7-9.8 63.37-8.72 64.05-7.65 64.05-6L64.05-6Q64.05-3.2 62.12-1.38 60.2 0.45 56.85 0.45L56.85 0.45Q54.9 0.45 53.02-0.23 51.15-0.9 50-2.2L50-2.2Q50.35-2.55 50.77-3.1 51.2-3.65 51.62-4.15 52.05-4.65 52.32-4.98 52.6-5.3 52.65-5.3L52.65-5.3Q52.65-5.25 53.02-5 53.4-4.75 54-4.48 54.6-4.2 55.35-3.98 56.1-3.75 56.85-3.75L56.85-3.75Q58.05-3.75 58.9-4.35 59.75-4.95 59.75-5.95L59.75-5.95Q59.75-6.85 59.07-7.38 58.4-7.9 57.4-8.35 56.4-8.8 55.2-9.28 54-9.75 53-10.5 52-11.25 51.32-12.38 50.65-13.5 50.65-15.3L50.65-15.3Q50.65-17 51.27-18.15 51.9-19.3 52.87-20.03 53.85-20.75 55.05-21.08 56.25-21.4 57.35-21.4L57.35-21.4Q58.8-21.4 60.45-20.8 62.1-20.2 63.25-19.05ZM68.04-28.9L68.04-28.9Q68.04-30.1 68.92-30.9 69.79-31.7 70.79-31.7L70.79-31.7Q71.79-31.7 72.64-30.9 73.49-30.1 73.49-28.9L73.49-28.9Q73.49-27.7 72.64-26.93 71.79-26.15 70.79-26.15L70.79-26.15Q69.79-26.15 68.92-26.93 68.04-27.7 68.04-28.9ZM72.84-20.9L72.84 0 68.59 0 68.59-20.9 72.84-20.9ZM78.84 0L78.84-20.9 82.59-20.9Q82.69-19.35 82.77-18.07 82.84-16.8 82.94-15.55L82.94-15.55Q84.09-18.25 86.22-19.85 88.34-21.45 91.44-21.45L91.44-21.45Q94.59-21.45 96.49-19.7 98.39-17.95 98.49-15.2L98.49-15.2 98.49 0 94.19 0 94.19-13.25Q94.09-14.85 93.09-15.98 92.09-17.1 89.94-17.2L89.94-17.2Q88.44-17.2 87.19-16.68 85.94-16.15 85.04-15.25 84.14-14.35 83.62-13.1 83.09-11.85 83.09-10.35L83.09-10.35 83.09 0 78.84 0ZM118.79-5.55L121.99-2.45Q120.49-1.1 118.34-0.3 116.19 0.5 113.94 0.5L113.94 0.5Q111.64 0.5 109.61-0.38 107.59-1.25 106.09-2.73 104.59-4.2 103.71-6.2 102.84-8.2 102.84-10.45L102.84-10.45Q102.84-12.7 103.71-14.7 104.59-16.7 106.09-18.2 107.59-19.7 109.56-20.58 111.54-21.45 113.79-21.45L113.79-21.45Q117.34-21.45 119.96-19.33 122.59-17.2 123.74-13.75L123.74-13.75Q122.19-13.2 120.19-12.4 118.19-11.6 116.04-10.73 113.89-9.85 111.74-9 109.59-8.15 107.74-7.45L107.74-7.45Q108.59-5.75 110.21-4.73 111.84-3.7 113.84-3.7L113.84-3.7Q115.19-3.7 116.56-4.2 117.94-4.7 118.79-5.55L118.79-5.55ZM118.39-14.75L118.39-14.75Q117.79-16 116.49-16.63 115.19-17.25 113.84-17.25L113.84-17.25Q112.39-17.25 111.16-16.7 109.94-16.15 109.04-15.23 108.14-14.3 107.61-13.1 107.09-11.9 107.09-10.65L107.09-10.65Q107.09-10.4 107.11-10.3 107.14-10.2 107.14-10.15L107.14-10.15Q108.44-10.65 109.96-11.28 111.49-11.9 112.99-12.53 114.49-13.15 115.89-13.73 117.29-14.3 118.39-14.75ZM125.69 0L125.69 0Q125.69-1.2 126.54-2.05 127.39-2.9 128.59-2.9L128.59-2.9Q129.79-2.9 130.64-2.05 131.49-1.2 131.49 0L131.49 0Q131.49 1.2 130.64 2.05 129.79 2.9 128.59 2.9L128.59 2.9Q127.39 2.9 126.54 2.05 125.69 1.2 125.69 0ZM135.73 0L135.73-20.9 139.48-20.9Q139.58-19.35 139.66-18.07 139.73-16.8 139.83-15.55L139.83-15.55Q140.98-18.25 142.86-19.83 144.73-21.4 147.88-21.45L147.88-21.45Q150.93-21.45 152.78-19.9 154.63-18.35 154.93-15.85L154.93-15.85Q156.18-18.4 158.01-19.9 159.83-21.4 162.93-21.45L162.93-21.45Q166.18-21.45 168.06-19.7 169.93-17.95 170.03-15.2L170.03-15.2 170.03 0 165.73 0 165.73-13.25Q165.63-14.85 164.66-15.98 163.68-17.1 161.48-17.2L161.48-17.2Q158.48-17.2 156.78-15.28 155.08-13.35 154.98-10.35L154.98-10.35 154.98 0 150.73 0 150.73-13.25Q150.63-14.85 149.61-15.98 148.58-17.1 146.48-17.2L146.48-17.2Q144.98-17.2 143.78-16.68 142.58-16.15 141.73-15.25 140.88-14.35 140.43-13.1 139.98-11.85 139.98-10.35L139.98-10.35 139.98 0 135.73 0ZM190.33-5.55L193.53-2.45Q192.03-1.1 189.88-0.3 187.73 0.5 185.48 0.5L185.48 0.5Q183.18 0.5 181.16-0.38 179.13-1.25 177.63-2.73 176.13-4.2 175.26-6.2 174.38-8.2 174.38-10.45L174.38-10.45Q174.38-12.7 175.26-14.7 176.13-16.7 177.63-18.2 179.13-19.7 181.11-20.58 183.08-21.45 185.33-21.45L185.33-21.45Q188.88-21.45 191.51-19.33 194.13-17.2 195.28-13.75L195.28-13.75Q193.73-13.2 191.73-12.4 189.73-11.6 187.58-10.73 185.43-9.85 183.28-9 181.13-8.15 179.28-7.45L179.28-7.45Q180.13-5.75 181.76-4.73 183.38-3.7 185.38-3.7L185.38-3.7Q186.73-3.7 188.11-4.2 189.48-4.7 190.33-5.55L190.33-5.55ZM189.93-14.75L189.93-14.75Q189.33-16 188.03-16.63 186.73-17.25 185.38-17.25L185.38-17.25Q183.93-17.25 182.71-16.7 181.48-16.15 180.58-15.23 179.68-14.3 179.16-13.1 178.63-11.9 178.63-10.65L178.63-10.65Q178.63-10.4 178.66-10.3 178.68-10.2 178.68-10.15L178.68-10.15Q179.98-10.65 181.51-11.28 183.03-11.9 184.53-12.53 186.03-13.15 187.43-13.73 188.83-14.3 189.93-14.75Z" opacity="1" transform="matrix(1,0,0,1,0,0)" fill="#000000" class="undefined-text-0" data-fill-palette-color="primary" id="text-0"></path></svg></g></svg></g></svg></g></svg></g></svg></g></svg></g></svg></g><g mask="url(#6f2fe75d-8a19-42e5-a531-8ed6cc153808)"><g transform="matrix(6.627027027027027, 0, 0, 6.627027027027027, 35.3967069539608, 1)"><svg xmlns:x="http://ns.adobe.com/Extensibility/1.0/" xmlns:i="http://ns.adobe.com/AdobeIllustrator/10.0/" xmlns:graph="http://ns.adobe.com/Graphs/1.0/" xmlns="http://www.w3.org/2000/svg" xmlns:xlink="http://www.w3.org/1999/xlink" version="1.1" x="0" y="0" viewBox="7.5 13.500000000000002 49.00034129448165 37" enable-background="new 0 0 64 64" xml:space="preserve" height="37" width="49.00034129448165" class="icon-none" data-fill-palette-color="accent" id="none"><g fill="#31c48d" data-fill-palette-color="accent"><g fill="#31c48d" data-fill-palette-color="accent"><path d="M45.808 35.705L32 41.458l-19.808-8.253c-0.254-0.102-0.547 0.015-0.654 0.27-0.106 0.255 0.014 0.548 0.269 0.654l20 8.333C31.869 42.487 31.935 42.5 32 42.5s0.131-0.013 0.192-0.038l14-5.833c0.255-0.106 0.375-0.399 0.27-0.654C46.355 35.719 46.06 35.604 45.808 35.705z" fill="#000000" data-fill-palette-color="accent"></path><path d="M52.5 41.882V26l0 0 3.692-1.539C56.379 24.384 56.5 24.202 56.5 24s-0.121-0.384-0.308-0.461l-24-10c-0.123-0.052-0.262-0.052-0.385 0l-24 10C7.622 23.616 7.5 23.798 7.5 24s0.122 0.384 0.308 0.461l24 10C31.869 34.487 31.935 34.5 32 34.5s0.131-0.013 0.192-0.038L51.5 26.417v15.465l-3.947 7.895c-0.077 0.155-0.069 0.339 0.021 0.486C47.666 50.41 47.827 50.5 48 50.5h8c0.173 0 0.334-0.09 0.426-0.237 0.091-0.147 0.099-0.331 0.021-0.486L52.5 41.882zM32 33.458L9.3 24 32 14.542 54.7 24 32 33.458zM48.809 49.5L52 43.118l3.191 6.382H48.809z" fill="#000000" data-fill-palette-color="accent"></path></g></g></svg><g></g></g></g></svg></g><defs><mask id="6f2fe75d-8a19-42e5-a531-8ed6cc153808"><rect width="640" height="400" fill="white"></rect><rect width="348.05760000000004" height="83.18508735085005" fill="black" x="145.97119999999998" y="158.40745632457498" id="transform-me" transform="matrix(1,0,0,1,-122.24000000000001,-76.4)"></rect></mask></defs></svg><rect width="395.52" height="247.2" fill="none" stroke="none" visibility="hidden"></rect></g></svg></g></svg>