<?xml version="1.0" encoding="UTF-8" standalone="no"?>
<!DOCTYPE svg PUBLIC "-//W3C//DTD SVG 1.1//EN" "http://www.w3.org/Graphics/SVG/1.1/DTD/svg11.dtd">
<svg xmlns="http://www.w3.org/2000/svg" version="1.1" viewBox="0 0 200 200">
<path fill="rgb(49,196,141)" fill-opacity="1.000" d="M 164.81 80.88 A 1.32 1.24 -12.1 0 0 164.00 82.05 Q 164.00 105.62 164.00 127.50 Q 164.00 131.13 165.30 133.45 Q 165.97 134.64 166.01 134.72 Q 171.10 145.00 176.26 155.26 Q 177.51 157.75 174.72 157.75 L 150.61 157.75 Q 147.49 157.75 148.89 154.97 L 160.41 131.99 Q 161.00 130.82 161.00 129.52 L 161.00 83.41 A 0.52 0.51 78.7 0 0 160.29 82.93 L 101.28 107.45 A 3.34 3.31 -44.7 0 1 98.73 107.45 L 24.73 76.62 A 2.19 2.15 -2.2 0 1 23.66 75.65 Q 22.86 74.15 24.67 73.40 Q 62.09 57.83 98.76 42.56 A 3.05 2.97 -44.5 0 1 101.06 42.55 L 175.81 73.69 Q 178.81 74.94 175.56 76.31 L 164.81 80.88 Z M 169.67 74.48 L 100.69 45.67 A 1.43 1.43 90.0 0 0 99.59 45.67 L 29.91 74.60 Q 28.94 75.00 29.91 75.40 L 99.13 104.22 A 2.27 2.24 44.6 0 0 100.86 104.22 L 169.66 75.64 Q 171.05 75.06 169.67 74.48 Z M 161.96 135.64 L 152.83 153.82 A 0.64 0.63 -76.4 0 0 153.39 154.75 L 171.44 154.75 A 0.72 0.71 76.4 0 0 172.07 153.71 L 162.91 135.63 Q 162.44 134.69 161.96 135.64 Z"/>
<path fill="rgb(49,196,141)" fill-opacity="1.000" d="M 100.28 129.25 
                                                L 142.94 111.62 
                                                A 1.94 1.87 -40.0 0 1 144.65 111.74 
                                                Q 145.88 112.49 145.11 113.66 
                                                Q 144.73 114.24 143.77 114.65 
                                                Q 122.92 123.43 100.84 132.57 
                                                A 2.32 2.32 -90.0 0 1 99.06 132.57 
                                                L 37.02 106.63 
                                                A 1.55 1.24 2.3 0 1 36.31 106.01 
                                                Q 35.45 104.36 37.07 103.90 
                                                Q 37.84 103.68 38.87 104.11 
                                                Q 69.12 116.67 99.36 129.25 
                                                A 1.20 1.20 -44.8 0 0 100.28 129.25 
                                                Z"/>
</svg>