<?xml version="1.0" encoding="UTF-8" standalone="no"?>
<!DOCTYPE svg PUBLIC "-//W3C//DTD SVG 1.1//EN" "http://www.w3.org/Graphics/SVG/1.1/DTD/svg11.dtd">
<svg xmlns="http://www.w3.org/2000/svg" version="1.1" viewBox="0 0 200 200">
<path fill="rgb(0,0,0)" fill-opacity="1.000" d="M 160.94 83.25 A 0.47 0.46 -11.1 0 0 160.30 82.82 L 100.76 107.56 A 2.01 2.01 0.0 0 1 99.24 107.56 Q 61.74 92.08 25.06 76.68 Q 23.99 76.23 23.58 75.58 Q 22.73 74.24 24.50 73.50 Q 62.00 57.88 98.92 42.49 A 2.63 2.60 -44.7 0 1 100.91 42.49 Q 138.88 58.20 174.98 73.34 Q 176.08 73.80 176.39 74.39 Q 176.80 75.17 176.20 75.93 Q 175.86 76.37 175.02 76.71 Q 169.68 78.90 164.39 81.03 A 0.63 0.63 -11.2 0 0 164.00 81.61 L 164.00 130.27 Q 164.00 130.81 164.25 131.31 L 176.32 155.45 Q 177.47 157.75 174.89 157.75 L 150.67 157.75 Q 147.50 157.75 148.92 154.91 Q 154.48 143.80 159.97 132.81 Q 161.00 130.75 161.00 128.43 Q 161.04 105.64 160.94 83.25 Z M 170.40 74.73 L 100.63 45.72 A 1.91 1.88 -44.5 0 0 99.18 45.72 L 29.68 74.69 Q 28.86 75.03 29.68 75.37 L 99.52 104.38 A 1.24 1.21 44.3 0 0 100.47 104.38 L 170.40 75.23 Q 171.01 74.98 170.40 74.73 Z M 171.93 154.53 A 0.29 0.28 76.4 0 0 172.18 154.11 L 162.72 135.24 Q 162.49 134.78 162.26 135.24 L 152.82 154.12 A 0.43 0.42 -76.6 0 0 153.19 154.74 L 171.93 154.53 Z"/>
<path fill="rgb(0,0,0)" fill-opacity="1.000" d="M 99.40 129.37 A 1.47 1.43 -44.4 0 0 100.51 129.37 L 143.29 111.69 A 1.20 1.09 -42.1 0 1 144.21 111.69 Q 146.05 112.53 144.87 113.83 Q 144.40 114.34 143.35 114.79 Q 122.01 123.92 100.47 132.56 A 1.31 1.20 -43.0 0 1 99.54 132.57 L 55.77 114.38 A 1.22 1.16 0.6 0 1 55.10 113.73 Q 54.20 111.57 56.29 111.63 Q 57.02 111.66 58.15 112.12 Q 78.88 120.72 99.40 129.37 Z"/>
</svg>